<?xml version="1.0" encoding="utf-8"?>
<svg xmlns="http://www.w3.org/2000/svg" viewBox="0 0 512 512">
  <defs>
    <linearGradient id="mg-grad" x1="0%" y1="0%" x2="100%" y2="100%">
      <stop offset="0%" stop-color="#2563eb"/>
      <stop offset="50%" stop-color="#0ea5e9"/>
      <stop offset="100%" stop-color="#06d6d4"/>
    </linearGradient>
    <linearGradient id="crown-grad" x1="0%" y1="0%" x2="100%" y2="100%">
      <stop offset="0%" stop-color="#fbbf24"/>
      <stop offset="100%" stop-color="#f59e0b"/>
    </linearGradient>
  </defs>
  <!-- M stroke (left) -->
  <path d="M80 400 C80 400 80 180 80 160 Q80 100 130 80 L256 200 L200 260 Q160 230 130 210 L130 400 Q130 420 110 420 L100 420 Q80 420 80 400 Z" fill="url(#mg-grad)" opacity="0.95"/>
  <!-- V check (top center) -->
  <path d="M130 80 L256 200 L382 80 L340 80 L256 160 L172 80 Z" fill="url(#mg-grad)"/>
  <!-- G stroke (right) -->
  <path d="M382 80 L256 200 L310 260 Q350 230 382 210 L382 310 Q382 330 360 330 L280 330 L280 290 L340 290 L340 260 L310 260 L256 200" fill="url(#mg-grad)" opacity="0.9"/>
  <!-- Crown -->
  <g transform="translate(340, 50) scale(0.6)">
    <path d="M0 60 L20 20 L40 45 L60 0 L80 45 L100 20 L100 60 Z" fill="url(#crown-grad)"/>
    <rect x="0" y="55" width="100" height="12" rx="3" fill="url(#crown-grad)"/>
  </g>
  <!-- People silhouettes -->
  <g transform="translate(140, 280)" fill="white">
    <!-- Center person (larger) -->
    <circle cx="116" cy="30" r="22"/>
    <path d="M88 60 Q88 55 100 50 L116 48 L132 50 Q144 55 144 60 L144 95 Q144 100 138 100 L94 100 Q88 100 88 95 Z"/>
    <!-- Left person -->
    <circle cx="60" cy="40" r="18"/>
    <path d="M38 66 Q38 62 48 58 L60 56 L72 58 Q82 62 82 66 L82 95 Q82 100 76 100 L44 100 Q38 100 38 95 Z"/>
    <!-- Right person -->
    <circle cx="172" cy="40" r="18"/>
    <path d="M150 66 Q150 62 160 58 L172 56 L184 58 Q194 62 194 66 L194 95 Q194 100 188 100 L156 100 Q150 100 150 95 Z"/>
  </g>
</svg>
